<svg width="77" height="20" viewBox="0 0 77 20" fill="none" xmlns="http://www.w3.org/2000/svg">
<path d="M55.3708 6.152V5.396H57.4108V14H56.5588V6.152H55.3708ZM65.5947 2.72L62.2827 15.992H61.4547L64.7427 2.72H65.5947ZM74.8036 6.116H70.4116V9.188C70.6116 8.908 70.9036 8.68 71.2876 8.504C71.6716 8.32 72.0876 8.228 72.5356 8.228C73.1916 8.228 73.7276 8.364 74.1436 8.636C74.5596 8.9 74.8596 9.248 75.0436 9.68C75.2276 10.104 75.3196 10.56 75.3196 11.048C75.3196 11.608 75.2116 12.116 74.9956 12.572C74.7876 13.02 74.4636 13.376 74.0236 13.64C73.5916 13.904 73.0516 14.036 72.4036 14.036C71.5796 14.036 70.9116 13.824 70.3996 13.4C69.8876 12.968 69.5756 12.388 69.4636 11.66H70.2916C70.3956 12.188 70.6356 12.596 71.0116 12.884C71.3876 13.172 71.8516 13.316 72.4036 13.316C73.0996 13.316 73.6236 13.112 73.9756 12.704C74.3356 12.288 74.5156 11.74 74.5156 11.06C74.5156 10.396 74.3356 9.88 73.9756 9.512C73.6156 9.136 73.0996 8.948 72.4276 8.948C71.9636 8.948 71.5556 9.056 71.2036 9.272C70.8516 9.488 70.5916 9.78 70.4236 10.148H69.6316V5.384H74.8036V6.116Z" fill="#E5E5E5"/>
<line y1="9.75" x2="44.0114" y2="9.75" stroke="#F8F9FA" stroke-width="0.5"/>
</svg>
